<svg width="35" height="41" viewBox="0 0 35 41" fill="none" xmlns="http://www.w3.org/2000/svg">
<path d="M17.2534 0C16.8553 0.078125 16.4472 0.126953 16.0591 0.234375C12.0479 1.26953 9.48998 3.76953 8.63401 7.73437C7.96715 10.8203 8.74349 13.6621 10.9431 16.0547C12.3864 17.627 14.1481 18.6816 16.2681 19.0918C16.925 19.2187 17.6018 19.3066 18.2786 19.2676C18.2786 19.1016 18.2886 18.9258 18.2886 18.7598C18.2886 12.5098 18.2886 6.25977 18.2886 0C17.9402 0 17.5919 0 17.2534 0Z" fill="white"/>
<path d="M18.2886 0C18.2886 6.25 18.2886 12.5 18.2886 18.7598C18.2886 18.9258 18.2886 19.1016 18.2787 19.2676C22.5287 19.1504 25.6142 17.1777 27.2863 13.3984C29.6551 8.02734 26.6991 2.2168 21.2447 0.439453C20.6973 0.263672 20.12 0.146484 19.5427 0.078125C19.4631 0.0683594 19.3835 0.078125 19.3337 0C18.9754 0 18.627 0 18.2886 0Z" fill="white"/>
<path d="M18.2686 22.3827C16.6861 22.3925 15.203 22.0019 13.7897 21.3378C13.1427 21.0351 12.5157 20.664 11.9683 20.2245C10.5947 19.1112 9.11171 19.1894 7.53911 19.6581C5.47881 20.2733 4.05551 21.6112 3.03033 23.4179C2.01511 25.2147 1.52741 27.1776 1.22881 29.1894C1.0198 30.6054 0.970028 32.0312 0.989935 33.4667C1.0397 36.6698 3.10996 39.1601 6.30492 39.8241C6.83244 39.9315 7.36991 39.9999 7.91733 39.9999C11.2815 39.9999 14.6556 39.9999 18.0198 39.9999C18.0994 39.9999 18.179 39.9901 18.2587 39.9901C18.2587 34.1894 18.2587 28.3886 18.2587 22.578C18.2786 22.5097 18.2686 22.4511 18.2686 22.3827Z" fill="white"/>
<path d="M18.2687 22.3827C18.2687 22.4511 18.2786 22.5097 18.2786 22.578C18.2786 28.3788 18.2786 34.1796 18.2786 39.9902C20.757 39.9902 23.2453 40.0097 25.7236 39.9999C26.7985 39.9999 27.8735 40.0487 28.9385 39.9316C31.8747 39.6288 34.2933 37.6659 34.8407 34.7558C35.0597 33.6034 34.9999 32.4609 34.9402 31.2987C34.8606 29.6972 34.6217 28.1249 34.2037 26.5722C33.716 24.7362 32.9496 23.037 31.6258 21.621C30.521 20.4296 29.1375 19.746 27.545 19.453C27.117 19.3749 26.6791 19.3359 26.2412 19.3163C25.7634 19.287 25.3255 19.4433 24.9273 19.6874C24.4795 19.9609 24.0216 20.2245 23.5837 20.5273C21.9812 21.621 20.2195 22.2655 18.2687 22.3827Z" fill="white"/>
</svg>
